<?xml version="1.0" standalone="no"?>
<!DOCTYPE svg PUBLIC "-//W3C//DTD SVG 20010904//EN"
 "http://www.w3.org/TR/2001/REC-SVG-20010904/DTD/svg10.dtd">
<svg version="1.0" xmlns="http://www.w3.org/2000/svg"
 width="260.000000pt" height="260.000000pt" viewBox="0 0 16 16"
 preserveAspectRatio="xMidYMid meet">
<metadata>
Created by potrace 1.11, written by Peter Selinger 2001-2013
</metadata>
<g transform="translate(0.000000,260.000000) scale(0.100000,-0.100000)"
fill="#000000" stroke="none">
<path d="M1168 2585 c-319 -39 -589 -172 -797 -391 -212 -222 -319 -456 -356
-775 -13 -112 -13 -140 0 -250 24 -194 57 -305 138 -463 182 -358 526 -612
922 -683 133 -24 353 -21 482 6 652 136 1093 727 1033 1384 -51 554 -433 1001
-975 1141 -58 15 -293 47 -325 45 -8 -1 -63 -7 -122 -14z m392 -203 c168 -45
284 -101 419 -203 459 -345 572 -1008 256 -1490 -62 -95 -229 -262 -324 -324
-518 -340 -1219 -184 -1553 346 -62 98 -107 205 -141 333 -18 69 -21 107 -21
256 0 156 3 185 27 273 53 199 156 374 304 518 168 163 355 261 580 304 110
20 351 14 453 -13z"/>
<path d="M1165 2369 c-681 -93 -1104 -777 -881 -1426 117 -341 400 -600 761
-694 78 -21 113 -24 260 -24 154 0 179 3 270 28 55 15 150 52 210 82 281 139
475 378 562 691 25 90 28 114 28 269 0 147 -3 182 -24 260 -108 412 -423 715
-834 799 -98 21 -262 28 -352 15z m-355 -752 c0 -7 -60 -154 -133 -327 l-133
-315 -35 0 c-23 0 -33 4 -31 13 4 22 255 616 265 630 12 16 67 16 67 -1z m742
-54 c-2 -35 -1 -63 3 -63 3 0 26 14 51 31 46 31 57 31 74 -2 10 -18 5 -23 -50
-47 l-60 -28 55 -27 c56 -27 67 -45 40 -67 -12 -10 -20 -9 -40 4 -14 9 -37 24
-51 33 l-26 17 3 -65 4 -64 -30 0 -30 0 4 64 3 64 -38 -23 c-22 -13 -47 -29
-57 -34 -13 -8 -20 -7 -27 4 -18 28 -10 40 45 67 l56 27 -56 28 c-59 30 -62
35 -42 62 13 18 15 17 53 -6 21 -13 45 -28 52 -32 11 -7 14 3 12 50 -3 78 -4
76 28 72 27 -3 27 -4 24 -65z m578 60 c0 -4 -61 -152 -136 -330 l-137 -323
-33 0 c-19 0 -34 4 -34 9 0 5 57 144 126 308 69 164 130 308 135 321 7 17 16
22 44 22 19 0 35 -3 35 -7z m-995 -453 c38 -42 9 -110 -48 -110 -17 0 -39 7
-49 17 -22 20 -23 70 -1 95 22 24 75 23 98 -2z"/>
</g>
</svg>
