<?xml version="1.0" standalone="no"?>
<!DOCTYPE svg PUBLIC "-//W3C//DTD SVG 20010904//EN"
 "http://www.w3.org/TR/2001/REC-SVG-20010904/DTD/svg10.dtd">
<svg version="1.0" xmlns="http://www.w3.org/2000/svg"
 width="100.000000pt" height="100.000000pt" viewBox="0 0 100.000000 100.000000"
 preserveAspectRatio="xMidYMid meet">
<metadata>
Created by potrace 1.11, written by Peter Selinger 2001-2013
</metadata>
<g transform="translate(0.000000,100.000000) scale(0.100000,-0.100000)"
fill="#000000" stroke="none">
<path d="M401 984 c-100 -21 -168 -59 -247 -138 -83 -83 -119 -150 -141 -265
-15 -74 -15 -88 0 -163 33 -165 128 -293 270 -363 302 -148 658 41 708 375 39
257 -134 500 -396 555 -84 18 -111 18 -194 -1z m204 -69 c127 -34 230 -120
288 -242 30 -63 32 -76 32 -173 0 -97 -2 -110 -32 -173 -44 -93 -119 -169
-212 -215 -72 -36 -79 -37 -181 -37 -97 0 -110 2 -173 32 -178 85 -281 274
-250 459 43 250 287 411 528 349z"/>
<path d="M385 897 c-118 -40 -207 -117 -258 -225 -30 -62 -32 -75 -32 -172 0
-97 2 -110 31 -171 54 -113 137 -187 253 -224 81 -26 218 -18 293 19 85 41
162 115 200 194 27 57 33 81 36 158 3 69 0 105 -13 145 -37 116 -112 200 -224
252 -56 27 -80 32 -156 34 -55 2 -105 -2 -130 -10z m-75 -279 c-2 -32 -99
-243 -114 -246 -9 -2 -16 -1 -16 1 0 7 80 199 96 230 15 28 34 37 34 15z m290
-14 c0 -22 2 -24 15 -14 8 6 20 8 26 4 9 -5 7 -11 -6 -21 -18 -13 -18 -13 1
-27 24 -18 10 -34 -16 -18 -18 11 -20 9 -20 -13 0 -16 -6 -25 -16 -25 -12 0
-15 7 -12 25 4 21 3 23 -14 14 -10 -5 -23 -7 -30 -3 -7 4 -2 11 12 19 l23 13
-22 12 c-16 8 -20 15 -13 22 7 7 16 6 29 -1 18 -9 20 -7 15 14 -3 18 0 25 12
25 11 0 16 -9 16 -26z m216 9 c-41 -110 -103 -243 -113 -243 -20 0 -17 9 38
139 33 79 56 121 66 121 10 0 13 -6 9 -17z m-372 -170 c4 -9 0 -23 -9 -32 -13
-14 -17 -14 -31 1 -9 9 -14 24 -11 32 8 21 43 20 51 -1z"/>
</g>
</svg>
